<?xml version="1.0" encoding="iso-8859-1"?>
<!-- Generator: Adobe Illustrator 18.0.0, SVG Export Plug-In . SVG Version: 6.00 Build 0)  -->
<!DOCTYPE svg PUBLIC "-//W3C//DTD SVG 1.1//EN" "http://www.w3.org/Graphics/SVG/1.1/DTD/svg11.dtd">
<svg version="1.1" id="Capa_1" xmlns="http://www.w3.org/2000/svg" xmlns:xlink="http://www.w3.org/1999/xlink" x="0px" y="0px"
	 viewBox="0 0 370.129 370.129" style="enable-background:new 0 0 370.129 370.129;" xml:space="preserve">
<g>
	<path d="M335.948,199.598l-45.662-79.09l-3.19,22.826l-22.791-7.826l45.771,79.279l0.24,0.402
		c3.098,4.998,4.734,10.771,4.734,16.699c0,17.375-14.016,31.539-31.336,31.777l-0.197-0.014l-0.502,0.018h-61.801v-20l-44.311,35
		l44.311,35v-20h62.057c0.02,0,0.043,0,0.064,0l0.172-0.002c33.957-0.127,61.543-27.793,61.543-61.779
		C345.051,220.457,341.905,209.297,335.948,199.598z"/>
	<path d="M151.051,278.084l15-14.414H86.83c-11.318,0-21.863-6.09-27.521-15.891c-5.658-9.801-5.658-21.98-0.002-31.781
		l27.937-48.385l17.124,10.113l-7.604-55.953l-52.67,20.355l17.317,10.228L33.326,201c-10.998,19.053-10.998,42.725,0,61.779
		C44.328,281.832,64.83,293.67,86.83,293.67h79.221L151.051,278.084z"/>
	<path d="M115.032,119.484l42.488-73.596C163.18,36.088,173.725,30,185.043,30c11.316,0,21.863,6.088,27.521,15.889l23.705,41.061
		l-17.966,10.045l52.174,21.596l8.926-55.756l-16.944,9.474l-23.913-41.419C227.543,11.836,207.043,0,185.043,0
		c-22.002,0-42.502,11.836-53.504,30.889l-42.488,73.596l22.324-7.598L115.032,119.484z"/>
	<path d="M185.746,207.914h-1.387c-6.822,0-12.26-3.453-13.178-13.809h-22.311c0.516,21.283,12.441,33.229,36.182,33.229
		c23.719,0,36.203-13.455,36.203-34.678v-2.637c0-21.223-12.484-34.678-35.094-34.678c-5.965,0-11.514,1.248-16.369,3.328
		l-0.02-21.916h47.07v-19.42h-67.063l-0.102,59.371l19.004,6.518c2.912-5.824,9.434-8.6,15.121-8.6h0.832
		c8.045,0,14.426,4.439,14.426,15.951v1.525C199.063,203.613,192.682,207.914,185.746,207.914z"/>
	<path d="M161.305,315.654h-20.48v54.475h12.961v-19.555h7.52c10.16,0,21.682-2.234,21.682-16.762v-1.396
		C182.987,317.959,171.465,315.654,161.305,315.654z M169.866,333.465c0,6.145-4.48,7.332-8,7.332h-8.08v-15.365h8.08
		c3.52,0,8,1.188,8,7.334V333.465z"/>
	<path d="M210.024,315.654h-20.48v54.475h12.961v-19.555h7.52c10.16,0,21.682-2.234,21.682-16.762v-1.396
		C231.705,317.959,220.184,315.654,210.024,315.654z M218.584,333.465c0,6.145-4.48,7.332-8,7.332h-8.08v-15.365h8.08
		c3.52,0,8,1.188,8,7.334V333.465z"/>
</g>
<g>
</g>
<g>
</g>
<g>
</g>
<g>
</g>
<g>
</g>
<g>
</g>
<g>
</g>
<g>
</g>
<g>
</g>
<g>
</g>
<g>
</g>
<g>
</g>
<g>
</g>
<g>
</g>
<g>
</g>
</svg>
